<?xml version="1.0" standalone="no"?>
<!DOCTYPE svg PUBLIC "-//W3C//DTD SVG 20010904//EN"
 "http://www.w3.org/TR/2001/REC-SVG-20010904/DTD/svg10.dtd">
<svg version="1.0" xmlns="http://www.w3.org/2000/svg"
 width="149.000000pt" height="149.000000pt" viewBox="0 0 149.000000 149.000000"
 preserveAspectRatio="xMidYMid meet">
<metadata>
Created by potrace 1.11, written by Peter Selinger 2001-2013
</metadata>
<g transform="translate(0.000000,149.000000) scale(0.100000,-0.100000)"
fill="#000000" stroke="none">
<path d="M670 1483 c-254 -38 -480 -204 -580 -426 -51 -114 -63 -173 -64 -302
0 -129 11 -190 54 -295 84 -209 281 -382 493 -434 124 -30 132 -30 150 -3 11
18 22 23 40 20 19 -4 26 1 35 24 7 15 13 39 14 53 3 28 47 49 59 27 39 -69 54
-86 73 -83 23 3 37 49 30 96 -4 23 -1 29 21 34 21 5 31 1 51 -23 62 -74 115
-32 72 56 -9 18 -8 27 7 43 15 16 21 17 37 7 69 -42 82 -46 100 -30 19 17 12
44 -21 92 -18 25 -18 27 0 45 12 12 24 16 36 11 10 -4 35 -11 55 -15 33 -6 37
-5 43 18 5 20 -1 33 -30 62 -53 54 -44 77 32 78 54 0 72 10 73 39 0 7 -22 25
-48 40 -34 20 -48 34 -46 46 3 23 10 30 29 33 7 1 30 7 49 14 28 9 36 17 36
35 0 19 -9 26 -46 39 -26 9 -50 14 -54 11 -4 -3 -10 8 -13 23 -3 15 0 30 6 33
69 39 86 54 83 73 -3 23 -43 36 -88 28 -22 -4 -30 1 -40 23 -11 24 -10 29 6
41 10 7 43 19 72 25 l54 12 -17 26 c-9 14 -23 37 -29 51 -26 50 -127 162 -187
207 -74 55 -178 105 -267 128 -61 16 -224 27 -280 18z"/>
</g>
</svg>
